<svg width="20" height="20" viewBox="0 0 20 20" fill="none" xmlns="http://www.w3.org/2000/svg"><path d="M3.443 13.861a.2.2 0 0 1-.101-.173l.01-7.377a.2.2 0 0 1 .1-.173l6.496-3.69a.2.2 0 0 1 .198 0l6.392 3.67a.2.2 0 0 1 .1.174v7.424a.2.2 0 0 1-.1.174l-6.43 3.662a.2.2 0 0 1-.198 0l-6.467-3.69Z" fill="#BF7FE9"/><path d="M16.666 6.331a.1.1 0 0 0-.15-.086l-6.479 3.783v7.552l6.528-3.718a.2.2 0 0 0 .101-.174V6.33Z" fill="#9B38DC"/><path d="m14.147 4.759-6.848 3.68v1.578a.1.1 0 0 1-.15.087L5.935 9.41a.2.2 0 0 1-.101-.173V7.603l6.781-3.72 1.532.876Z" fill="#21A038"/><path d="M15.84 11.345a.1.1 0 0 0-.151-.087l-2.882 1.69a.1.1 0 0 0-.05.086v1.473a.1.1 0 0 0 .15.087l2.882-1.645a.1.1 0 0 0 .05-.087v-1.518Z" fill="#202020"/></svg>