<svg width="20" height="20" viewBox="0 0 20 20" fill="none" xmlns="http://www.w3.org/2000/svg"><path d="M10.866 3.75H9.191v1.758h1.675V3.75Z" fill="#202020"/><path d="M11.517 2.5h-2.95a.2.2 0 0 0-.2.2v1.258c0 .11.09.2.2.2h2.95a.2.2 0 0 0 .2-.2V2.7a.2.2 0 0 0-.2-.2Zm4.275 4.163-1.185-1.184-1.243 1.243 1.184 1.184 1.244-1.243Z" fill="#202020"/><path d="m17.137 6.232-2.085-2.086a.2.2 0 0 0-.283 0l-.89.89a.2.2 0 0 0 0 .283l2.086 2.086a.2.2 0 0 0 .283 0l.89-.89a.2.2 0 0 0 0-.283Z" fill="#21A038"/><path d="M10 18.333A6.667 6.667 0 1 0 10 5a6.667 6.667 0 0 0 0 13.333Z" fill="#9B38DC"/><path d="M10 16.667a5 5 0 1 0 0-10 5 5 0 0 0 0 10Z" fill="#BF7FE9"/><path d="M15 11.667a5 5 0 0 0-5-5v5h5Z" fill="#fff"/></svg>