<svg width="450" height="450" viewBox="0 0 46 46" fill="none" xmlns="http://www.w3.org/2000/svg"><path fill="#FAFAFA" d="M0 0h46v46H0z"/><path fill-rule="evenodd" clip-rule="evenodd" d="m27.41 12.316-.58-.87a1 1 0 0 0-.832-.446h-6a1 1 0 0 0-.832.445L17.463 14h-3.465a3 3 0 0 0-3 3v11a3 3 0 0 0 1.03 2.262l1.301-1.518a1 1 0 0 1-.331-.744V17a1 1 0 0 1 1-1h4a1 1 0 0 0 .832-.445L20.533 13h4.93l.595.893 1.352-1.577ZM28.6 14l-1.387 1.62a1 1 0 0 0 .785.38h4a1 1 0 0 1 1 1v11a1 1 0 0 1-1 1H15.744l-1.715 2h17.969a3 3 0 0 0 3-3V17a3 3 0 0 0-3-3h-3.397Zm-9.52 11.107a5 5 0 1 0 6.39-7.454l-1.343 1.567a3.001 3.001 0 1 1-3.704 4.32l-1.342 1.567Zm2.023-5.433c-.277.226-.513.5-.695.811l-2.279 2.659a5 5 0 0 1 5.253-6.129l-2.279 2.659Z" fill="#E5E5E5"/><path fill-rule="evenodd" clip-rule="evenodd" d="M31.65 11.24a1 1 0 0 1 .11 1.41L14.018 33.303A1 1 0 1 1 12.501 32l17.74-20.65a1 1 0 0 1 1.41-.11Z" fill="#E5E5E5"/></svg>