<svg width="12" height="10" viewBox="0 0 12 10" fill="none" xmlns="http://www.w3.org/2000/svg">
    <path d="M9.63795 0.796875H2.36178C2.29249 0.796875 2.23633 0.853041 2.23633 0.922326V2.05139H9.7634V0.922326C9.7634 0.853041 9.70724 0.796875 9.63795 0.796875Z" fill="#9B38DC"/>
    <path d="M9.97308 4.98438H2.02783L2.43961 9.92574C2.44322 9.96909 2.47946 10.0024 2.52296 10.0024H9.47796C9.52145 10.0024 9.55769 9.96909 9.5613 9.92574L9.97308 4.98438Z" fill="#9B38DC"/>
    <path d="M0.772461 3.72656H2.86332V4.98108H0.772461V3.72656Z" fill="#1C1F22"/>
    <path d="M2.86328 3.72656H4.95414V4.98108H2.86328V3.72656Z" fill="white"/>
    <path d="M4.95459 3.72656H7.04545V4.98108H4.95459V3.72656Z" fill="#1C1F22"/>
    <path d="M7.04541 3.72656H9.13627V4.98108H7.04541V3.72656Z" fill="white"/>
    <path d="M9.13623 3.72656H11.2271V4.98108H9.13623V3.72656Z" fill="#1C1F22"/>
    <path d="M2.23606 2.04688H3.69966L2.86332 3.71956H0.772461L2.23606 2.04688Z" fill="#1C1F22"/>
    <path d="M3.69962 2.04688H5.16322L4.95414 3.71956H2.86328L3.69962 2.04688Z" fill="white"/>
    <path d="M9.76345 2.04688H8.29985L9.1362 3.71956H11.2271L9.76345 2.04688Z" fill="#1C1F22"/>
    <path d="M8.29989 2.04688H6.83629L7.04537 3.71956H9.13623L8.29989 2.04688Z" fill="white"/>
    <path d="M6.83632 2.04688H5.16364L4.95455 3.71956H7.04541L6.83632 2.04688Z" fill="#1C1F22"/>
    <path d="M7.47657 6.65625H4.52397C4.4747 6.65625 4.4361 6.69863 4.4407 6.74769L4.74576 10.0016H7.25478L7.55984 6.74769C7.56444 6.69863 7.52584 6.65625 7.47657 6.65625Z" fill="white"/>
</svg>
